<svg id="Layer_1" data-name="Layer 1" xmlns="http://www.w3.org/2000/svg" viewBox="0 0 160 83.2"><defs><style>.cls-1{fill:#005581;}.cls-2,.cls-3{fill:#fff;}.cls-3{fill-rule:evenodd;}.cls-4{fill:#f89728;}</style></defs><title>margento-logo</title><path class="cls-1" d="M160,41.6c0,23-35.82,41.6-80,41.6S0,64.58,0,41.6,35.82,0,80,0s80,18.63,80,41.6"/><path class="cls-2" d="M151.9,30.48A1.12,1.12,0,0,1,153,29.36a1.14,1.14,0,0,1,1.12,1.15A1.12,1.12,0,0,1,153,31.63a1.14,1.14,0,0,1-1.12-1.15m-.43,0A1.52,1.52,0,0,0,153,32a1.54,1.54,0,0,0,1.54-1.53A1.51,1.51,0,0,0,153,29a1.53,1.53,0,0,0-1.54,1.52"/><path class="cls-2" d="M152.84,29.95H153c.18,0,.24.06.24.2s-.08.24-.29.24h-.1Zm-.34-.27v1.59h.34v-.66h0l.37.66h.42l-.3-.51-.13-.2a.43.43,0,0,0,.37-.46c0-.25-.15-.42-.55-.42Z"/><path class="cls-3" d="M33.89,36.43c0-4.1-3.41-5.44-6.3-5.44a9.22,9.22,0,0,0-5.7,1.55h0A6.44,6.44,0,0,0,17,31a8.92,8.92,0,0,0-4.88,1.47H12l-.3-1.08H7.55V52.07h5.1V36.69a5.93,5.93,0,0,1,4-1.34,1.47,1.47,0,0,1,1.56,1.6V52.07h5.1V36.69a6,6,0,0,1,3.93-1.34,1.51,1.51,0,0,1,1.59,1.6V52.07h5.1V36.43"/><path class="cls-3" d="M46.89,42.89l0,4.14a5.08,5.08,0,0,1-3.54,1.11c-1.51,0-2.07-.82-2.07-2.29a2.47,2.47,0,0,1,.65-1.9c.87-.82,3.24-1,5-1v0m5.06,9.18V36.47c0-4.23-3.54-5.48-7.47-5.48a25.75,25.75,0,0,0-6.78.86L38,36.52a21.85,21.85,0,0,1,6.13-1.16c2.16,0,2.76.69,2.76,1.77v2.15c-3.5.08-7.08.26-9.16,2.2a6.76,6.76,0,0,0-1.68,5,5.61,5.61,0,0,0,5.88,6,10.23,10.23,0,0,0,5.57-1.42l.09,0,.3,1h4.06"/><path class="cls-3" d="M66.66,31.38A9.12,9.12,0,0,0,63.8,31a4.36,4.36,0,0,0-4,2.38h-.09l-.39-2H55.21V52.07h5.1V37.77a4.17,4.17,0,0,1,3.07-1.86,8.68,8.68,0,0,1,3,.52l.31-5.05"/><path class="cls-3" d="M96.75,39.11l-6.22,0c.26-2.85,1-3.88,3.37-3.88,2.63,0,2.8,1.94,2.85,3.84m4.93.78c0-5.27-1.47-8.9-7.6-8.9-6.56,0-8.94,3.54-8.94,10.84S88,52.45,94.46,52.45a29.54,29.54,0,0,0,6.57-.78l-.3-4.57a25.38,25.38,0,0,1-6.26.91c-2.51,0-4.1-1.3-4.1-5.27h11.32V39.89"/><path class="cls-3" d="M120.87,36.43c0-4.19-3.63-5.4-6.43-5.4a11.54,11.54,0,0,0-5.66,1.34l-.13,0-.26-1h-4.14V52.07h5.09V36.69a8.3,8.3,0,0,1,4.75-1.34,1.58,1.58,0,0,1,1.68,1.6V52.07h5.1V36.43"/><path class="cls-3" d="M134.48,35.91V31.38h-5.08V26l-5.1,1.16v21c0,2.68,1.21,4.32,4.28,4.32a34,34,0,0,0,5.57-.52l-.25-4.62a20,20,0,0,1-3.76.61c-.52,0-.78-.26-.78-1.08l0-10.93h5.08"/><path class="cls-3" d="M149.38,41.74C149.38,47,148,48,145.23,48s-4.14-1-4.14-6.26,1.47-6.22,4.14-6.22,4.15,1,4.15,6.27m5.18,0c0-7.39-2.89-10.71-9.33-10.71s-9.32,3.32-9.32,10.67,2.89,10.75,9.32,10.75,9.33-3.37,9.33-10.71"/><path class="cls-3" d="M78.16,48.54H73.37c-.86,0-.73-.82-.3-1.29l.37-.38a8.2,8.2,0,0,0,1.83.21,8,8,0,0,0,7-12A4,4,0,0,1,77,31.26s0-.07,0-.11a8.06,8.06,0,0,0-6.93,14l-.08.1-.91,1.08a4.26,4.26,0,0,0-1.38,3,2.76,2.76,0,0,0,1.59,2.38l0,.09A5.26,5.26,0,0,0,66.86,56c0,4.58,4,5.27,8.11,5.27,2.77,0,6.3-.22,8.33-2.2a6.43,6.43,0,0,0,1.81-4.88c0-3.06-1.94-5.74-6.95-5.7M75.28,35.88A3.14,3.14,0,1,1,72.13,39,3.14,3.14,0,0,1,75.28,35.88ZM79.46,56c-1,.91-2.63,1-4.27,1-.91,0-2.33,0-2.9-.6a1.66,1.66,0,0,1-.56-1.34,2.66,2.66,0,0,1,1.52-2.33h5.22c1.3,0,1.77.69,1.77,1.38A2.37,2.37,0,0,1,79.46,56Z"/><path class="cls-4" d="M84,31.26a3,3,0,1,1-3-3,3,3,0,0,1,3,3"/></svg>